<mxfile host="app.diagrams.net" modified="2021-07-26T11:00:09.449Z" agent="5.0 (Windows NT 10.0; Win64; x64) AppleWebKit/537.36 (KHTML, like Gecko) Chrome/91.0.4472.124 Safari/537.36" etag="Sn2_Xc1xdETHjuMpyybX" version="14.9.0" type="github">
  <diagram id="89KW_1dWedbiyGsjmDrg" name="Page-1">
    <mxGraphModel dx="1808" dy="526" grid="1" gridSize="10" guides="1" tooltips="1" connect="1" arrows="1" fold="1" page="1" pageScale="1" pageWidth="827" pageHeight="1169" math="0" shadow="0">
      <root>
        <mxCell id="0" />
        <mxCell id="1" parent="0" />
        <mxCell id="Pe1yKk_wz3yDoeoVBeo1-119" value="" style="rounded=0;whiteSpace=wrap;html=1;labelBackgroundColor=none;fontSize=16;fontColor=#000000;strokeWidth=1;strokeColor=none;shadow=1;" vertex="1" parent="1">
          <mxGeometry x="940" y="880" width="240" height="160" as="geometry" />
        </mxCell>
        <mxCell id="Pe1yKk_wz3yDoeoVBeo1-56" value="" style="rounded=0;whiteSpace=wrap;html=1;strokeWidth=1;fillColor=#ffe6cc;strokeColor=#d79b00;" vertex="1" parent="1">
          <mxGeometry x="320" y="540" width="900" height="80" as="geometry" />
        </mxCell>
        <mxCell id="Pe1yKk_wz3yDoeoVBeo1-54" value="" style="rounded=0;whiteSpace=wrap;html=1;strokeWidth=1;fillColor=#d5e8d4;strokeColor=#82b366;" vertex="1" parent="1">
          <mxGeometry x="320" y="460" width="900" height="80" as="geometry" />
        </mxCell>
        <mxCell id="Pe1yKk_wz3yDoeoVBeo1-52" value="" style="rounded=0;whiteSpace=wrap;html=1;strokeWidth=1;fillColor=#dae8fc;strokeColor=#6c8ebf;" vertex="1" parent="1">
          <mxGeometry x="320" y="380" width="900" height="80" as="geometry" />
        </mxCell>
        <mxCell id="Pe1yKk_wz3yDoeoVBeo1-50" value="" style="rounded=0;whiteSpace=wrap;html=1;strokeWidth=1;fillColor=#f5f5f5;strokeColor=#666666;fontColor=#333333;" vertex="1" parent="1">
          <mxGeometry x="320" y="220" width="900" height="160" as="geometry" />
        </mxCell>
        <mxCell id="Pe1yKk_wz3yDoeoVBeo1-3" style="edgeStyle=orthogonalEdgeStyle;rounded=0;orthogonalLoop=1;jettySize=auto;html=1;" edge="1" parent="1" source="Pe1yKk_wz3yDoeoVBeo1-7" target="Pe1yKk_wz3yDoeoVBeo1-4">
          <mxGeometry relative="1" as="geometry">
            <mxPoint x="140" y="120" as="sourcePoint" />
            <mxPoint x="140" y="160" as="targetPoint" />
          </mxGeometry>
        </mxCell>
        <mxCell id="Pe1yKk_wz3yDoeoVBeo1-12" style="edgeStyle=orthogonalEdgeStyle;rounded=0;orthogonalLoop=1;jettySize=auto;html=1;exitX=0.5;exitY=1;exitDx=0;exitDy=0;entryX=0.5;entryY=0;entryDx=0;entryDy=0;" edge="1" parent="1" source="Pe1yKk_wz3yDoeoVBeo1-4" target="Pe1yKk_wz3yDoeoVBeo1-6">
          <mxGeometry relative="1" as="geometry" />
        </mxCell>
        <mxCell id="Pe1yKk_wz3yDoeoVBeo1-106" style="rounded=0;orthogonalLoop=1;jettySize=auto;html=1;exitX=1;exitY=0.5;exitDx=0;exitDy=0;entryX=0;entryY=0.5;entryDx=0;entryDy=0;labelBackgroundColor=#ffffff;fontSize=16;fontColor=#007FFF;edgeStyle=orthogonalEdgeStyle;strokeColor=#007FFF;" edge="1" parent="1" source="Pe1yKk_wz3yDoeoVBeo1-4" target="Pe1yKk_wz3yDoeoVBeo1-17">
          <mxGeometry relative="1" as="geometry" />
        </mxCell>
        <mxCell id="Pe1yKk_wz3yDoeoVBeo1-4" value="DNS Lookup" style="shape=process;whiteSpace=wrap;html=1;backgroundOutline=1;strokeWidth=1;fillColor=none;" vertex="1" parent="1">
          <mxGeometry x="40" y="160" width="200" height="40" as="geometry" />
        </mxCell>
        <mxCell id="Pe1yKk_wz3yDoeoVBeo1-13" style="edgeStyle=orthogonalEdgeStyle;rounded=0;orthogonalLoop=1;jettySize=auto;html=1;exitX=0.5;exitY=1;exitDx=0;exitDy=0;entryX=0.5;entryY=0;entryDx=0;entryDy=0;" edge="1" parent="1" source="Pe1yKk_wz3yDoeoVBeo1-6" target="Pe1yKk_wz3yDoeoVBeo1-10">
          <mxGeometry relative="1" as="geometry" />
        </mxCell>
        <mxCell id="Pe1yKk_wz3yDoeoVBeo1-6" value="根据DNS结果发送请求内容" style="rounded=1;whiteSpace=wrap;html=1;absoluteArcSize=1;arcSize=14;strokeWidth=1;fillColor=none;" vertex="1" parent="1">
          <mxGeometry x="40" y="240" width="200" height="40" as="geometry" />
        </mxCell>
        <mxCell id="Pe1yKk_wz3yDoeoVBeo1-7" value="Start" style="strokeWidth=1;html=1;shape=mxgraph.flowchart.start_2;whiteSpace=wrap;fillColor=none;" vertex="1" parent="1">
          <mxGeometry x="120" y="80" width="40" height="40" as="geometry" />
        </mxCell>
        <mxCell id="Pe1yKk_wz3yDoeoVBeo1-9" value="执行HTTP请求" style="text;html=1;strokeColor=none;fillColor=none;align=center;verticalAlign=middle;whiteSpace=wrap;rounded=0;fontStyle=1;fontColor=#FF0000;" vertex="1" parent="1">
          <mxGeometry x="80" y="60" width="120" height="20" as="geometry" />
        </mxCell>
        <mxCell id="Pe1yKk_wz3yDoeoVBeo1-14" style="edgeStyle=orthogonalEdgeStyle;rounded=0;orthogonalLoop=1;jettySize=auto;html=1;exitX=0.5;exitY=1;exitDx=0;exitDy=0;entryX=0.5;entryY=0;entryDx=0;entryDy=0;entryPerimeter=0;" edge="1" parent="1" source="Pe1yKk_wz3yDoeoVBeo1-10" target="Pe1yKk_wz3yDoeoVBeo1-11">
          <mxGeometry relative="1" as="geometry" />
        </mxCell>
        <mxCell id="Pe1yKk_wz3yDoeoVBeo1-10" value="得到Server响应" style="rounded=1;whiteSpace=wrap;html=1;absoluteArcSize=1;arcSize=14;strokeWidth=1;fillColor=none;" vertex="1" parent="1">
          <mxGeometry x="40" y="320" width="200" height="40" as="geometry" />
        </mxCell>
        <mxCell id="Pe1yKk_wz3yDoeoVBeo1-11" value="End" style="strokeWidth=1;html=1;shape=mxgraph.flowchart.terminator;whiteSpace=wrap;fillColor=none;" vertex="1" parent="1">
          <mxGeometry x="120" y="400" width="40" height="40" as="geometry" />
        </mxCell>
        <mxCell id="Pe1yKk_wz3yDoeoVBeo1-19" style="edgeStyle=orthogonalEdgeStyle;rounded=0;orthogonalLoop=1;jettySize=auto;html=1;exitX=0.5;exitY=1;exitDx=0;exitDy=0;exitPerimeter=0;" edge="1" parent="1" source="Pe1yKk_wz3yDoeoVBeo1-16" target="Pe1yKk_wz3yDoeoVBeo1-60">
          <mxGeometry relative="1" as="geometry">
            <mxPoint x="440" y="240" as="targetPoint" />
          </mxGeometry>
        </mxCell>
        <mxCell id="Pe1yKk_wz3yDoeoVBeo1-16" value="Start" style="strokeWidth=1;html=1;shape=mxgraph.flowchart.start_2;whiteSpace=wrap;fillColor=none;" vertex="1" parent="1">
          <mxGeometry x="420" y="80" width="40" height="40" as="geometry" />
        </mxCell>
        <mxCell id="Pe1yKk_wz3yDoeoVBeo1-17" value="DNS Lookup" style="text;html=1;strokeColor=none;fillColor=none;align=center;verticalAlign=middle;whiteSpace=wrap;rounded=0;fontStyle=1" vertex="1" parent="1">
          <mxGeometry x="400" y="60" width="80" height="20" as="geometry" />
        </mxCell>
        <mxCell id="Pe1yKk_wz3yDoeoVBeo1-22" value="N" style="edgeStyle=orthogonalEdgeStyle;rounded=0;orthogonalLoop=1;jettySize=auto;html=1;exitX=0.5;exitY=1;exitDx=0;exitDy=0;exitPerimeter=0;" edge="1" parent="1" source="Pe1yKk_wz3yDoeoVBeo1-20" target="Pe1yKk_wz3yDoeoVBeo1-23">
          <mxGeometry relative="1" as="geometry">
            <mxPoint x="440" y="320" as="targetPoint" />
          </mxGeometry>
        </mxCell>
        <mxCell id="Pe1yKk_wz3yDoeoVBeo1-28" value="Y" style="edgeStyle=orthogonalEdgeStyle;rounded=0;orthogonalLoop=1;jettySize=auto;html=1;exitX=1;exitY=0.5;exitDx=0;exitDy=0;exitPerimeter=0;entryX=0;entryY=0.5;entryDx=0;entryDy=0;" edge="1" parent="1" source="Pe1yKk_wz3yDoeoVBeo1-20" target="Pe1yKk_wz3yDoeoVBeo1-27">
          <mxGeometry relative="1" as="geometry" />
        </mxCell>
        <mxCell id="Pe1yKk_wz3yDoeoVBeo1-20" value="系统是否配置代理?" style="strokeWidth=1;html=1;shape=mxgraph.flowchart.decision;whiteSpace=wrap;fillColor=none;" vertex="1" parent="1">
          <mxGeometry x="340" y="240" width="200" height="40" as="geometry" />
        </mxCell>
        <mxCell id="Pe1yKk_wz3yDoeoVBeo1-29" value="Y" style="edgeStyle=orthogonalEdgeStyle;rounded=0;orthogonalLoop=1;jettySize=auto;html=1;" edge="1" parent="1" source="Pe1yKk_wz3yDoeoVBeo1-23" target="Pe1yKk_wz3yDoeoVBeo1-26">
          <mxGeometry relative="1" as="geometry" />
        </mxCell>
        <mxCell id="Pe1yKk_wz3yDoeoVBeo1-34" value="N" style="edgeStyle=orthogonalEdgeStyle;rounded=0;orthogonalLoop=1;jettySize=auto;html=1;exitX=0.5;exitY=1;exitDx=0;exitDy=0;exitPerimeter=0;" edge="1" parent="1" source="Pe1yKk_wz3yDoeoVBeo1-23" target="Pe1yKk_wz3yDoeoVBeo1-35">
          <mxGeometry relative="1" as="geometry">
            <mxPoint x="439.9999999999998" y="400" as="targetPoint" />
          </mxGeometry>
        </mxCell>
        <mxCell id="Pe1yKk_wz3yDoeoVBeo1-23" value="测试环境?" style="strokeWidth=1;html=1;shape=mxgraph.flowchart.decision;whiteSpace=wrap;fillColor=none;" vertex="1" parent="1">
          <mxGeometry x="340" y="320" width="200" height="40" as="geometry" />
        </mxCell>
        <mxCell id="Pe1yKk_wz3yDoeoVBeo1-30" value="N" style="edgeStyle=orthogonalEdgeStyle;rounded=0;orthogonalLoop=1;jettySize=auto;html=1;exitX=0.5;exitY=0;exitDx=0;exitDy=0;exitPerimeter=0;" edge="1" parent="1" source="Pe1yKk_wz3yDoeoVBeo1-26" target="Pe1yKk_wz3yDoeoVBeo1-27">
          <mxGeometry relative="1" as="geometry" />
        </mxCell>
        <mxCell id="Pe1yKk_wz3yDoeoVBeo1-32" value="Y" style="edgeStyle=orthogonalEdgeStyle;rounded=0;orthogonalLoop=1;jettySize=auto;html=1;" edge="1" parent="1" source="Pe1yKk_wz3yDoeoVBeo1-26" target="Pe1yKk_wz3yDoeoVBeo1-31">
          <mxGeometry relative="1" as="geometry" />
        </mxCell>
        <mxCell id="Pe1yKk_wz3yDoeoVBeo1-26" value="是否配置Host ID？" style="strokeWidth=1;html=1;shape=mxgraph.flowchart.decision;whiteSpace=wrap;fillColor=none;" vertex="1" parent="1">
          <mxGeometry x="580" y="320" width="200" height="40" as="geometry" />
        </mxCell>
        <mxCell id="Pe1yKk_wz3yDoeoVBeo1-48" style="edgeStyle=orthogonalEdgeStyle;rounded=0;orthogonalLoop=1;jettySize=auto;html=1;exitX=1;exitY=0.5;exitDx=0;exitDy=0;entryX=1;entryY=0.5;entryDx=0;entryDy=0;entryPerimeter=0;" edge="1" parent="1" source="Pe1yKk_wz3yDoeoVBeo1-27" target="Pe1yKk_wz3yDoeoVBeo1-44">
          <mxGeometry relative="1" as="geometry">
            <Array as="points">
              <mxPoint x="1040" y="260" />
              <mxPoint x="1040" y="660" />
            </Array>
          </mxGeometry>
        </mxCell>
        <mxCell id="Pe1yKk_wz3yDoeoVBeo1-27" value="使用Local DNS结果" style="rounded=1;whiteSpace=wrap;html=1;absoluteArcSize=1;arcSize=14;strokeWidth=1;fillColor=none;fontStyle=4" vertex="1" parent="1">
          <mxGeometry x="580" y="240" width="200" height="40" as="geometry" />
        </mxCell>
        <mxCell id="Pe1yKk_wz3yDoeoVBeo1-49" style="edgeStyle=orthogonalEdgeStyle;rounded=0;orthogonalLoop=1;jettySize=auto;html=1;exitX=1;exitY=0.5;exitDx=0;exitDy=0;" edge="1" parent="1" source="Pe1yKk_wz3yDoeoVBeo1-31" target="Pe1yKk_wz3yDoeoVBeo1-44">
          <mxGeometry relative="1" as="geometry">
            <Array as="points">
              <mxPoint x="1040" y="340" />
              <mxPoint x="1040" y="660" />
            </Array>
          </mxGeometry>
        </mxCell>
        <mxCell id="Pe1yKk_wz3yDoeoVBeo1-31" value="请求统一Host并使用其结果" style="rounded=1;whiteSpace=wrap;html=1;absoluteArcSize=1;arcSize=14;strokeWidth=1;fillColor=none;" vertex="1" parent="1">
          <mxGeometry x="820" y="320" width="200" height="40" as="geometry" />
        </mxCell>
        <mxCell id="Pe1yKk_wz3yDoeoVBeo1-37" value="Y" style="edgeStyle=orthogonalEdgeStyle;rounded=0;orthogonalLoop=1;jettySize=auto;html=1;exitX=1;exitY=0.5;exitDx=0;exitDy=0;exitPerimeter=0;" edge="1" parent="1" source="Pe1yKk_wz3yDoeoVBeo1-35" target="Pe1yKk_wz3yDoeoVBeo1-36">
          <mxGeometry relative="1" as="geometry" />
        </mxCell>
        <mxCell id="Pe1yKk_wz3yDoeoVBeo1-39" value="N" style="edgeStyle=orthogonalEdgeStyle;rounded=0;orthogonalLoop=1;jettySize=auto;html=1;exitX=0.5;exitY=1;exitDx=0;exitDy=0;exitPerimeter=0;" edge="1" parent="1" source="Pe1yKk_wz3yDoeoVBeo1-35" target="Pe1yKk_wz3yDoeoVBeo1-38">
          <mxGeometry relative="1" as="geometry" />
        </mxCell>
        <mxCell id="Pe1yKk_wz3yDoeoVBeo1-35" value="应用是否配置内置Host？" style="strokeWidth=1;html=1;shape=mxgraph.flowchart.decision;whiteSpace=wrap;fillColor=none;" vertex="1" parent="1">
          <mxGeometry x="340" y="400" width="200" height="40" as="geometry" />
        </mxCell>
        <mxCell id="Pe1yKk_wz3yDoeoVBeo1-47" style="edgeStyle=orthogonalEdgeStyle;rounded=0;orthogonalLoop=1;jettySize=auto;html=1;exitX=1;exitY=0.5;exitDx=0;exitDy=0;entryX=1;entryY=0.5;entryDx=0;entryDy=0;entryPerimeter=0;" edge="1" parent="1" source="Pe1yKk_wz3yDoeoVBeo1-36" target="Pe1yKk_wz3yDoeoVBeo1-44">
          <mxGeometry relative="1" as="geometry">
            <Array as="points">
              <mxPoint x="1040" y="420" />
              <mxPoint x="1040" y="660" />
            </Array>
          </mxGeometry>
        </mxCell>
        <mxCell id="Pe1yKk_wz3yDoeoVBeo1-36" value="使用应用内置Host" style="rounded=1;whiteSpace=wrap;html=1;absoluteArcSize=1;arcSize=14;strokeWidth=1;fillColor=none;" vertex="1" parent="1">
          <mxGeometry x="580" y="400" width="200" height="40" as="geometry" />
        </mxCell>
        <mxCell id="Pe1yKk_wz3yDoeoVBeo1-41" value="N" style="edgeStyle=orthogonalEdgeStyle;rounded=0;orthogonalLoop=1;jettySize=auto;html=1;exitX=1;exitY=0.5;exitDx=0;exitDy=0;exitPerimeter=0;" edge="1" parent="1" source="Pe1yKk_wz3yDoeoVBeo1-38" target="Pe1yKk_wz3yDoeoVBeo1-40">
          <mxGeometry relative="1" as="geometry" />
        </mxCell>
        <mxCell id="Pe1yKk_wz3yDoeoVBeo1-43" value="Y" style="edgeStyle=orthogonalEdgeStyle;rounded=0;orthogonalLoop=1;jettySize=auto;html=1;exitX=0.5;exitY=1;exitDx=0;exitDy=0;exitPerimeter=0;entryX=0.5;entryY=0;entryDx=0;entryDy=0;" edge="1" parent="1" source="Pe1yKk_wz3yDoeoVBeo1-38" target="Pe1yKk_wz3yDoeoVBeo1-42">
          <mxGeometry relative="1" as="geometry" />
        </mxCell>
        <mxCell id="Pe1yKk_wz3yDoeoVBeo1-38" value="是否为白名单域名？" style="strokeWidth=1;html=1;shape=mxgraph.flowchart.decision;whiteSpace=wrap;fillColor=none;" vertex="1" parent="1">
          <mxGeometry x="340" y="480" width="200" height="40" as="geometry" />
        </mxCell>
        <mxCell id="Pe1yKk_wz3yDoeoVBeo1-46" style="edgeStyle=orthogonalEdgeStyle;rounded=0;orthogonalLoop=1;jettySize=auto;html=1;exitX=1;exitY=0.5;exitDx=0;exitDy=0;entryX=1;entryY=0.5;entryDx=0;entryDy=0;entryPerimeter=0;" edge="1" parent="1" source="Pe1yKk_wz3yDoeoVBeo1-40" target="Pe1yKk_wz3yDoeoVBeo1-44">
          <mxGeometry relative="1" as="geometry">
            <Array as="points">
              <mxPoint x="1040" y="500" />
              <mxPoint x="1040" y="660" />
            </Array>
          </mxGeometry>
        </mxCell>
        <mxCell id="Pe1yKk_wz3yDoeoVBeo1-40" value="使用Local DNS结果" style="rounded=1;whiteSpace=wrap;html=1;absoluteArcSize=1;arcSize=14;strokeWidth=1;fillColor=none;fontStyle=4" vertex="1" parent="1">
          <mxGeometry x="580" y="480" width="200" height="40" as="geometry" />
        </mxCell>
        <mxCell id="Pe1yKk_wz3yDoeoVBeo1-45" style="edgeStyle=orthogonalEdgeStyle;rounded=0;orthogonalLoop=1;jettySize=auto;html=1;exitX=0.5;exitY=1;exitDx=0;exitDy=0;entryX=0.5;entryY=0;entryDx=0;entryDy=0;entryPerimeter=0;" edge="1" parent="1" source="Pe1yKk_wz3yDoeoVBeo1-42" target="Pe1yKk_wz3yDoeoVBeo1-44">
          <mxGeometry relative="1" as="geometry" />
        </mxCell>
        <mxCell id="Pe1yKk_wz3yDoeoVBeo1-42" value="使用腾讯云HTTP DNS结果" style="rounded=1;whiteSpace=wrap;html=1;absoluteArcSize=1;arcSize=14;strokeWidth=1;fillColor=none;" vertex="1" parent="1">
          <mxGeometry x="340" y="560" width="200" height="40" as="geometry" />
        </mxCell>
        <mxCell id="Pe1yKk_wz3yDoeoVBeo1-44" value="End" style="strokeWidth=1;html=1;shape=mxgraph.flowchart.terminator;whiteSpace=wrap;fillColor=none;" vertex="1" parent="1">
          <mxGeometry x="420" y="640" width="40" height="40" as="geometry" />
        </mxCell>
        <mxCell id="Pe1yKk_wz3yDoeoVBeo1-51" value="DevEnvInterceptor" style="text;html=1;strokeColor=none;fillColor=none;align=center;verticalAlign=middle;whiteSpace=wrap;rounded=0;fontSize=16;fontStyle=1;fontColor=#FF0000;" vertex="1" parent="1">
          <mxGeometry x="1040" y="220" width="180" height="40" as="geometry" />
        </mxCell>
        <mxCell id="Pe1yKk_wz3yDoeoVBeo1-53" value="LocalHostInterceptor" style="text;html=1;strokeColor=none;fillColor=none;align=center;verticalAlign=middle;whiteSpace=wrap;rounded=0;fontSize=16;fontStyle=1;fontColor=#FF0000;" vertex="1" parent="1">
          <mxGeometry x="1040" y="380" width="180" height="40" as="geometry" />
        </mxCell>
        <mxCell id="Pe1yKk_wz3yDoeoVBeo1-55" value="WhiteListInterceptor" style="text;html=1;strokeColor=none;fillColor=none;align=center;verticalAlign=middle;whiteSpace=wrap;rounded=0;fontSize=16;fontStyle=1;fontColor=#FF0000;" vertex="1" parent="1">
          <mxGeometry x="1040" y="460" width="180" height="40" as="geometry" />
        </mxCell>
        <mxCell id="Pe1yKk_wz3yDoeoVBeo1-57" value="HttpDnsInterceptor" style="text;html=1;strokeColor=none;fillColor=none;align=center;verticalAlign=middle;whiteSpace=wrap;rounded=0;fontSize=16;fontStyle=1" vertex="1" parent="1">
          <mxGeometry x="1040" y="540" width="180" height="40" as="geometry" />
        </mxCell>
        <mxCell id="Pe1yKk_wz3yDoeoVBeo1-66" style="edgeStyle=orthogonalEdgeStyle;rounded=0;orthogonalLoop=1;jettySize=auto;html=1;exitX=0.5;exitY=1;exitDx=0;exitDy=0;exitPerimeter=0;entryX=0.5;entryY=0;entryDx=0;entryDy=0;entryPerimeter=0;labelBackgroundColor=#ffffff;fontSize=12;" edge="1" parent="1" source="Pe1yKk_wz3yDoeoVBeo1-58" target="Pe1yKk_wz3yDoeoVBeo1-65">
          <mxGeometry relative="1" as="geometry" />
        </mxCell>
        <mxCell id="Pe1yKk_wz3yDoeoVBeo1-58" value="Start" style="strokeWidth=1;html=1;shape=mxgraph.flowchart.start_2;whiteSpace=wrap;fillColor=none;" vertex="1" parent="1">
          <mxGeometry x="-160.11" y="80" width="40" height="40" as="geometry" />
        </mxCell>
        <mxCell id="Pe1yKk_wz3yDoeoVBeo1-59" value="拦截WebView资源加载" style="text;html=1;strokeColor=none;fillColor=none;align=center;verticalAlign=middle;whiteSpace=wrap;rounded=0;fontStyle=1" vertex="1" parent="1">
          <mxGeometry x="-240.11" y="60" width="200" height="20" as="geometry" />
        </mxCell>
        <mxCell id="Pe1yKk_wz3yDoeoVBeo1-61" value="Y" style="edgeStyle=orthogonalEdgeStyle;rounded=0;orthogonalLoop=1;jettySize=auto;html=1;exitX=0.5;exitY=1;exitDx=0;exitDy=0;exitPerimeter=0;entryX=0.5;entryY=0;entryDx=0;entryDy=0;entryPerimeter=0;labelBackgroundColor=#ffffff;fontSize=12;" edge="1" parent="1" source="Pe1yKk_wz3yDoeoVBeo1-60" target="Pe1yKk_wz3yDoeoVBeo1-20">
          <mxGeometry relative="1" as="geometry" />
        </mxCell>
        <mxCell id="Pe1yKk_wz3yDoeoVBeo1-62" value="N" style="edgeStyle=orthogonalEdgeStyle;rounded=0;orthogonalLoop=1;jettySize=auto;html=1;exitX=1;exitY=0.5;exitDx=0;exitDy=0;exitPerimeter=0;labelBackgroundColor=#ffffff;fontSize=12;" edge="1" parent="1" source="Pe1yKk_wz3yDoeoVBeo1-60" target="Pe1yKk_wz3yDoeoVBeo1-63">
          <mxGeometry relative="1" as="geometry" />
        </mxCell>
        <mxCell id="Pe1yKk_wz3yDoeoVBeo1-60" value="&lt;span style=&quot;color: rgb(255 , 0 , 0) ; font-weight: 700&quot;&gt;属于通用配置尾号？&lt;/span&gt;" style="strokeWidth=1;html=1;shape=mxgraph.flowchart.decision;whiteSpace=wrap;fillColor=none;" vertex="1" parent="1">
          <mxGeometry x="340" y="160" width="200" height="40" as="geometry" />
        </mxCell>
        <mxCell id="Pe1yKk_wz3yDoeoVBeo1-64" style="edgeStyle=orthogonalEdgeStyle;rounded=0;orthogonalLoop=1;jettySize=auto;html=1;exitX=1;exitY=0.5;exitDx=0;exitDy=0;labelBackgroundColor=#ffffff;fontSize=12;" edge="1" parent="1" source="Pe1yKk_wz3yDoeoVBeo1-63" target="Pe1yKk_wz3yDoeoVBeo1-44">
          <mxGeometry relative="1" as="geometry">
            <Array as="points">
              <mxPoint x="1040" y="180" />
              <mxPoint x="1040" y="660" />
            </Array>
          </mxGeometry>
        </mxCell>
        <mxCell id="Pe1yKk_wz3yDoeoVBeo1-63" value="使用Local DNS结果" style="rounded=1;whiteSpace=wrap;html=1;absoluteArcSize=1;arcSize=14;strokeWidth=1;fillColor=none;fontStyle=4" vertex="1" parent="1">
          <mxGeometry x="580" y="160" width="200" height="40" as="geometry" />
        </mxCell>
        <mxCell id="Pe1yKk_wz3yDoeoVBeo1-68" value="N" style="edgeStyle=orthogonalEdgeStyle;rounded=0;orthogonalLoop=1;jettySize=auto;html=1;exitX=0;exitY=0.5;exitDx=0;exitDy=0;exitPerimeter=0;labelBackgroundColor=#ffffff;fontSize=12;" edge="1" parent="1" source="Pe1yKk_wz3yDoeoVBeo1-65" target="Pe1yKk_wz3yDoeoVBeo1-67">
          <mxGeometry relative="1" as="geometry" />
        </mxCell>
        <mxCell id="Pe1yKk_wz3yDoeoVBeo1-70" value="Y" style="edgeStyle=orthogonalEdgeStyle;rounded=0;orthogonalLoop=1;jettySize=auto;html=1;exitX=0.5;exitY=1;exitDx=0;exitDy=0;exitPerimeter=0;entryX=0.5;entryY=0;entryDx=0;entryDy=0;entryPerimeter=0;labelBackgroundColor=#ffffff;fontSize=12;" edge="1" parent="1" source="Pe1yKk_wz3yDoeoVBeo1-65" target="Pe1yKk_wz3yDoeoVBeo1-69">
          <mxGeometry relative="1" as="geometry" />
        </mxCell>
        <mxCell id="Pe1yKk_wz3yDoeoVBeo1-65" value="属于通用配置尾号？" style="strokeWidth=1;html=1;shape=mxgraph.flowchart.decision;whiteSpace=wrap;fillColor=none;fontStyle=1;fontColor=#FF0000;" vertex="1" parent="1">
          <mxGeometry x="-240.11" y="160" width="200" height="40" as="geometry" />
        </mxCell>
        <mxCell id="Pe1yKk_wz3yDoeoVBeo1-104" style="edgeStyle=orthogonalEdgeStyle;rounded=0;orthogonalLoop=1;jettySize=auto;html=1;exitX=0;exitY=0.5;exitDx=0;exitDy=0;labelBackgroundColor=#ffffff;fontSize=12;" edge="1" parent="1" source="Pe1yKk_wz3yDoeoVBeo1-67" target="Pe1yKk_wz3yDoeoVBeo1-101">
          <mxGeometry relative="1" as="geometry">
            <Array as="points">
              <mxPoint x="-520.11" y="260" />
              <mxPoint x="-520.11" y="1060" />
            </Array>
          </mxGeometry>
        </mxCell>
        <mxCell id="Pe1yKk_wz3yDoeoVBeo1-67" value="交给WebView加载" style="rounded=1;whiteSpace=wrap;html=1;absoluteArcSize=1;arcSize=14;strokeWidth=1;fillColor=none;fontStyle=4" vertex="1" parent="1">
          <mxGeometry x="-480.11" y="240" width="200" height="40" as="geometry" />
        </mxCell>
        <mxCell id="Pe1yKk_wz3yDoeoVBeo1-71" value="N" style="edgeStyle=orthogonalEdgeStyle;rounded=0;orthogonalLoop=1;jettySize=auto;html=1;labelBackgroundColor=#ffffff;fontSize=12;" edge="1" parent="1" source="Pe1yKk_wz3yDoeoVBeo1-69" target="Pe1yKk_wz3yDoeoVBeo1-67">
          <mxGeometry relative="1" as="geometry" />
        </mxCell>
        <mxCell id="Pe1yKk_wz3yDoeoVBeo1-73" value="Y" style="edgeStyle=orthogonalEdgeStyle;rounded=0;orthogonalLoop=1;jettySize=auto;html=1;exitX=0.5;exitY=1;exitDx=0;exitDy=0;exitPerimeter=0;labelBackgroundColor=#ffffff;fontSize=12;" edge="1" parent="1" source="Pe1yKk_wz3yDoeoVBeo1-69" target="Pe1yKk_wz3yDoeoVBeo1-72">
          <mxGeometry relative="1" as="geometry" />
        </mxCell>
        <mxCell id="Pe1yKk_wz3yDoeoVBeo1-69" value="是否http(s)的GET请求?" style="strokeWidth=1;html=1;shape=mxgraph.flowchart.decision;whiteSpace=wrap;fillColor=none;" vertex="1" parent="1">
          <mxGeometry x="-240.11" y="240" width="200" height="40" as="geometry" />
        </mxCell>
        <mxCell id="Pe1yKk_wz3yDoeoVBeo1-75" style="edgeStyle=orthogonalEdgeStyle;rounded=0;orthogonalLoop=1;jettySize=auto;html=1;exitX=0.5;exitY=1;exitDx=0;exitDy=0;entryX=0.5;entryY=0;entryDx=0;entryDy=0;labelBackgroundColor=#ffffff;fontSize=12;" edge="1" parent="1" source="Pe1yKk_wz3yDoeoVBeo1-72" target="Pe1yKk_wz3yDoeoVBeo1-74">
          <mxGeometry relative="1" as="geometry" />
        </mxCell>
        <mxCell id="Pe1yKk_wz3yDoeoVBeo1-72" value="通过域名获取请求携带的Cookie" style="rounded=1;whiteSpace=wrap;html=1;absoluteArcSize=1;arcSize=14;strokeWidth=1;fillColor=none;" vertex="1" parent="1">
          <mxGeometry x="-240.11" y="320" width="200" height="40" as="geometry" />
        </mxCell>
        <mxCell id="Pe1yKk_wz3yDoeoVBeo1-77" style="edgeStyle=orthogonalEdgeStyle;rounded=0;orthogonalLoop=1;jettySize=auto;html=1;exitX=0.5;exitY=1;exitDx=0;exitDy=0;entryX=0.5;entryY=0;entryDx=0;entryDy=0;labelBackgroundColor=#ffffff;fontSize=12;" edge="1" parent="1" source="Pe1yKk_wz3yDoeoVBeo1-74" target="Pe1yKk_wz3yDoeoVBeo1-76">
          <mxGeometry relative="1" as="geometry" />
        </mxCell>
        <mxCell id="Pe1yKk_wz3yDoeoVBeo1-107" style="edgeStyle=orthogonalEdgeStyle;rounded=0;orthogonalLoop=1;jettySize=auto;html=1;exitX=1;exitY=0.5;exitDx=0;exitDy=0;entryX=0;entryY=0.5;entryDx=0;entryDy=0;labelBackgroundColor=#ffffff;fontSize=16;fontColor=#007FFF;strokeColor=#007FFF;" edge="1" parent="1" source="Pe1yKk_wz3yDoeoVBeo1-74" target="Pe1yKk_wz3yDoeoVBeo1-9">
          <mxGeometry relative="1" as="geometry" />
        </mxCell>
        <mxCell id="Pe1yKk_wz3yDoeoVBeo1-74" value="执行HTTP请求" style="shape=process;whiteSpace=wrap;html=1;backgroundOutline=1;fontSize=12;strokeWidth=1;fillColor=none;" vertex="1" parent="1">
          <mxGeometry x="-240.11" y="400" width="200" height="40" as="geometry" />
        </mxCell>
        <mxCell id="Pe1yKk_wz3yDoeoVBeo1-79" style="edgeStyle=orthogonalEdgeStyle;rounded=0;orthogonalLoop=1;jettySize=auto;html=1;exitX=0.5;exitY=1;exitDx=0;exitDy=0;entryX=0.5;entryY=0;entryDx=0;entryDy=0;entryPerimeter=0;labelBackgroundColor=#ffffff;fontSize=12;" edge="1" parent="1" source="Pe1yKk_wz3yDoeoVBeo1-76" target="Pe1yKk_wz3yDoeoVBeo1-78">
          <mxGeometry relative="1" as="geometry" />
        </mxCell>
        <mxCell id="Pe1yKk_wz3yDoeoVBeo1-76" value="解析Set-Cookie字段并设置Cookie" style="rounded=1;whiteSpace=wrap;html=1;absoluteArcSize=1;arcSize=14;strokeWidth=1;fillColor=none;" vertex="1" parent="1">
          <mxGeometry x="-240.11" y="480" width="200" height="40" as="geometry" />
        </mxCell>
        <mxCell id="Pe1yKk_wz3yDoeoVBeo1-80" value="Y" style="edgeStyle=orthogonalEdgeStyle;rounded=0;orthogonalLoop=1;jettySize=auto;html=1;exitX=0;exitY=0.5;exitDx=0;exitDy=0;exitPerimeter=0;labelBackgroundColor=#ffffff;fontSize=12;" edge="1" parent="1" source="Pe1yKk_wz3yDoeoVBeo1-78" target="Pe1yKk_wz3yDoeoVBeo1-67">
          <mxGeometry x="-0.8182" relative="1" as="geometry">
            <mxPoint as="offset" />
          </mxGeometry>
        </mxCell>
        <mxCell id="Pe1yKk_wz3yDoeoVBeo1-82" value="N" style="edgeStyle=orthogonalEdgeStyle;rounded=0;orthogonalLoop=1;jettySize=auto;html=1;exitX=0.5;exitY=1;exitDx=0;exitDy=0;exitPerimeter=0;labelBackgroundColor=#ffffff;fontSize=12;" edge="1" parent="1" source="Pe1yKk_wz3yDoeoVBeo1-78" target="Pe1yKk_wz3yDoeoVBeo1-86">
          <mxGeometry relative="1" as="geometry" />
        </mxCell>
        <mxCell id="Pe1yKk_wz3yDoeoVBeo1-78" value="响应重定向?" style="strokeWidth=1;html=1;shape=mxgraph.flowchart.decision;whiteSpace=wrap;fillColor=none;" vertex="1" parent="1">
          <mxGeometry x="-240.11" y="560" width="200" height="40" as="geometry" />
        </mxCell>
        <mxCell id="Pe1yKk_wz3yDoeoVBeo1-84" value="Y" style="edgeStyle=orthogonalEdgeStyle;rounded=0;orthogonalLoop=1;jettySize=auto;html=1;exitX=0;exitY=0.5;exitDx=0;exitDy=0;exitPerimeter=0;labelBackgroundColor=#ffffff;fontSize=12;" edge="1" parent="1" source="Pe1yKk_wz3yDoeoVBeo1-81" target="Pe1yKk_wz3yDoeoVBeo1-83">
          <mxGeometry relative="1" as="geometry" />
        </mxCell>
        <mxCell id="Pe1yKk_wz3yDoeoVBeo1-88" value="N" style="edgeStyle=orthogonalEdgeStyle;rounded=0;orthogonalLoop=1;jettySize=auto;html=1;exitX=0.5;exitY=1;exitDx=0;exitDy=0;exitPerimeter=0;entryX=0.5;entryY=0;entryDx=0;entryDy=0;entryPerimeter=0;labelBackgroundColor=#ffffff;fontSize=12;" edge="1" parent="1" source="Pe1yKk_wz3yDoeoVBeo1-81" target="Pe1yKk_wz3yDoeoVBeo1-85">
          <mxGeometry relative="1" as="geometry" />
        </mxCell>
        <mxCell id="Pe1yKk_wz3yDoeoVBeo1-81" value="字段值中有charset?" style="strokeWidth=1;html=1;shape=mxgraph.flowchart.decision;whiteSpace=wrap;fillColor=none;" vertex="1" parent="1">
          <mxGeometry x="-240.11" y="720" width="200" height="40" as="geometry" />
        </mxCell>
        <mxCell id="Pe1yKk_wz3yDoeoVBeo1-98" style="edgeStyle=orthogonalEdgeStyle;rounded=0;orthogonalLoop=1;jettySize=auto;html=1;labelBackgroundColor=#ffffff;fontSize=12;" edge="1" parent="1" source="Pe1yKk_wz3yDoeoVBeo1-83" target="Pe1yKk_wz3yDoeoVBeo1-97">
          <mxGeometry relative="1" as="geometry">
            <Array as="points">
              <mxPoint x="-500.11" y="740" />
              <mxPoint x="-500.11" y="980" />
            </Array>
          </mxGeometry>
        </mxCell>
        <mxCell id="Pe1yKk_wz3yDoeoVBeo1-83" value="Web资源响应(mime, charset, body)" style="rounded=1;whiteSpace=wrap;html=1;absoluteArcSize=1;arcSize=14;strokeWidth=1;fillColor=none;" vertex="1" parent="1">
          <mxGeometry x="-480.11" y="720" width="200" height="40" as="geometry" />
        </mxCell>
        <mxCell id="Pe1yKk_wz3yDoeoVBeo1-90" value="Y" style="edgeStyle=orthogonalEdgeStyle;rounded=0;orthogonalLoop=1;jettySize=auto;html=1;exitX=0;exitY=0.5;exitDx=0;exitDy=0;exitPerimeter=0;labelBackgroundColor=#ffffff;fontSize=12;" edge="1" parent="1" source="Pe1yKk_wz3yDoeoVBeo1-85" target="Pe1yKk_wz3yDoeoVBeo1-89">
          <mxGeometry relative="1" as="geometry" />
        </mxCell>
        <mxCell id="Pe1yKk_wz3yDoeoVBeo1-92" value="N" style="edgeStyle=orthogonalEdgeStyle;rounded=0;orthogonalLoop=1;jettySize=auto;html=1;exitX=0.5;exitY=1;exitDx=0;exitDy=0;exitPerimeter=0;entryX=0.5;entryY=0;entryDx=0;entryDy=0;entryPerimeter=0;labelBackgroundColor=#ffffff;fontSize=12;" edge="1" parent="1" source="Pe1yKk_wz3yDoeoVBeo1-85" target="Pe1yKk_wz3yDoeoVBeo1-91">
          <mxGeometry relative="1" as="geometry" />
        </mxCell>
        <mxCell id="Pe1yKk_wz3yDoeoVBeo1-85" value="&lt;b&gt;&lt;font color=&quot;#ff0000&quot;&gt;字段值是image/audio/video?&lt;/font&gt;&lt;/b&gt;" style="strokeWidth=1;html=1;shape=mxgraph.flowchart.decision;whiteSpace=wrap;fillColor=none;" vertex="1" parent="1">
          <mxGeometry x="-240.11" y="800" width="200" height="40" as="geometry" />
        </mxCell>
        <mxCell id="Pe1yKk_wz3yDoeoVBeo1-87" style="edgeStyle=orthogonalEdgeStyle;rounded=0;orthogonalLoop=1;jettySize=auto;html=1;exitX=0.5;exitY=1;exitDx=0;exitDy=0;labelBackgroundColor=#ffffff;fontSize=12;" edge="1" parent="1" source="Pe1yKk_wz3yDoeoVBeo1-86" target="Pe1yKk_wz3yDoeoVBeo1-81">
          <mxGeometry relative="1" as="geometry" />
        </mxCell>
        <mxCell id="Pe1yKk_wz3yDoeoVBeo1-86" value="解析Content-Type字段" style="rounded=1;whiteSpace=wrap;html=1;absoluteArcSize=1;arcSize=14;strokeWidth=1;fillColor=none;" vertex="1" parent="1">
          <mxGeometry x="-240.11" y="640" width="200" height="40" as="geometry" />
        </mxCell>
        <mxCell id="Pe1yKk_wz3yDoeoVBeo1-99" style="edgeStyle=orthogonalEdgeStyle;rounded=0;orthogonalLoop=1;jettySize=auto;html=1;labelBackgroundColor=#ffffff;fontSize=12;" edge="1" parent="1" source="Pe1yKk_wz3yDoeoVBeo1-89" target="Pe1yKk_wz3yDoeoVBeo1-97">
          <mxGeometry relative="1" as="geometry">
            <Array as="points">
              <mxPoint x="-500.11" y="820" />
              <mxPoint x="-500.11" y="980" />
            </Array>
          </mxGeometry>
        </mxCell>
        <mxCell id="Pe1yKk_wz3yDoeoVBeo1-89" value="Web资源响应(mime, null, body)" style="rounded=1;whiteSpace=wrap;html=1;absoluteArcSize=1;arcSize=14;strokeWidth=1;fillColor=none;" vertex="1" parent="1">
          <mxGeometry x="-480.11" y="800" width="200" height="40" as="geometry" />
        </mxCell>
        <mxCell id="Pe1yKk_wz3yDoeoVBeo1-94" value="Y" style="edgeStyle=orthogonalEdgeStyle;rounded=0;orthogonalLoop=1;jettySize=auto;html=1;exitX=0;exitY=0.5;exitDx=0;exitDy=0;exitPerimeter=0;labelBackgroundColor=#ffffff;fontSize=12;" edge="1" parent="1" source="Pe1yKk_wz3yDoeoVBeo1-91" target="Pe1yKk_wz3yDoeoVBeo1-93">
          <mxGeometry relative="1" as="geometry" />
        </mxCell>
        <mxCell id="Pe1yKk_wz3yDoeoVBeo1-96" value="N" style="edgeStyle=orthogonalEdgeStyle;rounded=0;orthogonalLoop=1;jettySize=auto;html=1;exitX=0.5;exitY=1;exitDx=0;exitDy=0;exitPerimeter=0;entryX=0.5;entryY=0;entryDx=0;entryDy=0;labelBackgroundColor=#ffffff;fontSize=12;" edge="1" parent="1" source="Pe1yKk_wz3yDoeoVBeo1-91" target="Pe1yKk_wz3yDoeoVBeo1-95">
          <mxGeometry relative="1" as="geometry" />
        </mxCell>
        <mxCell id="Pe1yKk_wz3yDoeoVBeo1-91" value="字段值是javascript/css?" style="strokeWidth=1;html=1;shape=mxgraph.flowchart.decision;whiteSpace=wrap;fillColor=none;" vertex="1" parent="1">
          <mxGeometry x="-240.11" y="880" width="200" height="40" as="geometry" />
        </mxCell>
        <mxCell id="Pe1yKk_wz3yDoeoVBeo1-100" style="edgeStyle=orthogonalEdgeStyle;rounded=0;orthogonalLoop=1;jettySize=auto;html=1;labelBackgroundColor=#ffffff;fontSize=12;" edge="1" parent="1" source="Pe1yKk_wz3yDoeoVBeo1-93" target="Pe1yKk_wz3yDoeoVBeo1-97">
          <mxGeometry relative="1" as="geometry">
            <Array as="points">
              <mxPoint x="-500.11" y="900" />
              <mxPoint x="-500.11" y="980" />
            </Array>
          </mxGeometry>
        </mxCell>
        <mxCell id="Pe1yKk_wz3yDoeoVBeo1-93" value="Web资源响应(mime, &quot;UTF-8&quot;, body)" style="rounded=1;whiteSpace=wrap;html=1;absoluteArcSize=1;arcSize=14;strokeWidth=1;fillColor=none;" vertex="1" parent="1">
          <mxGeometry x="-480.11" y="880" width="200" height="40" as="geometry" />
        </mxCell>
        <mxCell id="Pe1yKk_wz3yDoeoVBeo1-102" style="edgeStyle=orthogonalEdgeStyle;rounded=0;orthogonalLoop=1;jettySize=auto;html=1;exitX=0.5;exitY=1;exitDx=0;exitDy=0;labelBackgroundColor=#ffffff;fontSize=12;" edge="1" parent="1" source="Pe1yKk_wz3yDoeoVBeo1-95" target="Pe1yKk_wz3yDoeoVBeo1-101">
          <mxGeometry relative="1" as="geometry" />
        </mxCell>
        <mxCell id="Pe1yKk_wz3yDoeoVBeo1-95" value="交给WebView加载" style="rounded=1;whiteSpace=wrap;html=1;absoluteArcSize=1;arcSize=14;strokeWidth=1;fillColor=none;fontStyle=4" vertex="1" parent="1">
          <mxGeometry x="-240.11" y="960" width="200" height="40" as="geometry" />
        </mxCell>
        <mxCell id="Pe1yKk_wz3yDoeoVBeo1-103" style="edgeStyle=orthogonalEdgeStyle;rounded=0;orthogonalLoop=1;jettySize=auto;html=1;exitX=0.5;exitY=1;exitDx=0;exitDy=0;entryX=0;entryY=0.5;entryDx=0;entryDy=0;entryPerimeter=0;labelBackgroundColor=#ffffff;fontSize=12;" edge="1" parent="1" source="Pe1yKk_wz3yDoeoVBeo1-97" target="Pe1yKk_wz3yDoeoVBeo1-101">
          <mxGeometry relative="1" as="geometry" />
        </mxCell>
        <mxCell id="Pe1yKk_wz3yDoeoVBeo1-97" value="设置响应码和响应码描述&lt;br&gt;并将其作为拦截响应" style="rounded=1;whiteSpace=wrap;html=1;absoluteArcSize=1;arcSize=14;strokeWidth=1;fillColor=none;" vertex="1" parent="1">
          <mxGeometry x="-480.11" y="960" width="200" height="40" as="geometry" />
        </mxCell>
        <mxCell id="Pe1yKk_wz3yDoeoVBeo1-101" value="End" style="strokeWidth=1;html=1;shape=mxgraph.flowchart.terminator;whiteSpace=wrap;fillColor=none;" vertex="1" parent="1">
          <mxGeometry x="-160.11" y="1040" width="40" height="40" as="geometry" />
        </mxCell>
        <mxCell id="Pe1yKk_wz3yDoeoVBeo1-105" value="四层责任链拦截器" style="text;html=1;strokeColor=none;fillColor=none;align=center;verticalAlign=middle;whiteSpace=wrap;rounded=0;fontSize=16;fontStyle=3;fontColor=#007FFF;" vertex="1" parent="1">
          <mxGeometry x="1080" y="200" width="140" height="20" as="geometry" />
        </mxCell>
        <mxCell id="Pe1yKk_wz3yDoeoVBeo1-108" value="" style="endArrow=classic;html=1;labelBackgroundColor=#ffffff;fontSize=16;fontColor=#FF0000;strokeColor=#007FFF;" edge="1" parent="1">
          <mxGeometry width="50" height="50" relative="1" as="geometry">
            <mxPoint x="960" y="900" as="sourcePoint" />
            <mxPoint x="1080" y="900" as="targetPoint" />
          </mxGeometry>
        </mxCell>
        <mxCell id="Pe1yKk_wz3yDoeoVBeo1-109" value="子流程" style="text;html=1;strokeColor=none;fillColor=none;align=center;verticalAlign=middle;whiteSpace=wrap;rounded=0;fontSize=16;" vertex="1" parent="1">
          <mxGeometry x="1100" y="890" width="80" height="20" as="geometry" />
        </mxCell>
        <mxCell id="Pe1yKk_wz3yDoeoVBeo1-110" value="标红加粗" style="text;html=1;strokeColor=none;fillColor=none;align=center;verticalAlign=middle;whiteSpace=wrap;rounded=0;fontSize=16;fontStyle=1;fontColor=#FF0000;" vertex="1" parent="1">
          <mxGeometry x="960" y="930" width="120" height="20" as="geometry" />
        </mxCell>
        <mxCell id="Pe1yKk_wz3yDoeoVBeo1-111" value="问题点" style="text;html=1;strokeColor=none;fillColor=none;align=center;verticalAlign=middle;whiteSpace=wrap;rounded=0;fontSize=16;" vertex="1" parent="1">
          <mxGeometry x="1100" y="930" width="80" height="20" as="geometry" />
        </mxCell>
        <mxCell id="Pe1yKk_wz3yDoeoVBeo1-114" value="蓝色斜体加粗" style="text;html=1;strokeColor=none;fillColor=none;align=center;verticalAlign=middle;whiteSpace=wrap;rounded=0;fontSize=16;fontStyle=3;labelBackgroundColor=none;fontColor=#007FFF;" vertex="1" parent="1">
          <mxGeometry x="960" y="970" width="120" height="20" as="geometry" />
        </mxCell>
        <mxCell id="Pe1yKk_wz3yDoeoVBeo1-115" value="备注" style="text;html=1;strokeColor=none;fillColor=none;align=center;verticalAlign=middle;whiteSpace=wrap;rounded=0;fontSize=16;" vertex="1" parent="1">
          <mxGeometry x="1100" y="970" width="80" height="20" as="geometry" />
        </mxCell>
        <mxCell id="Pe1yKk_wz3yDoeoVBeo1-116" value="&lt;span style=&quot;font-style: normal ; font-weight: 400&quot;&gt;&lt;font color=&quot;#000000&quot;&gt;下划线&lt;/font&gt;&lt;/span&gt;" style="text;html=1;strokeColor=none;fillColor=none;align=center;verticalAlign=middle;whiteSpace=wrap;rounded=0;fontSize=16;fontStyle=7;labelBackgroundColor=none;fontColor=#007FFF;" vertex="1" parent="1">
          <mxGeometry x="960" y="1010" width="120" height="20" as="geometry" />
        </mxCell>
        <mxCell id="Pe1yKk_wz3yDoeoVBeo1-117" value="重复流程" style="text;html=1;strokeColor=none;fillColor=none;align=center;verticalAlign=middle;whiteSpace=wrap;rounded=0;fontSize=16;" vertex="1" parent="1">
          <mxGeometry x="1100" y="1010" width="80" height="20" as="geometry" />
        </mxCell>
        <mxCell id="Pe1yKk_wz3yDoeoVBeo1-118" value="" style="endArrow=none;html=1;labelBackgroundColor=#ffffff;fontSize=16;" edge="1" parent="1">
          <mxGeometry width="50" height="50" relative="1" as="geometry">
            <mxPoint x="1090" y="1030" as="sourcePoint" />
            <mxPoint x="1090" y="890" as="targetPoint" />
            <Array as="points">
              <mxPoint x="1090" y="970" />
            </Array>
          </mxGeometry>
        </mxCell>
        <mxCell id="Pe1yKk_wz3yDoeoVBeo1-640" style="edgeStyle=orthogonalEdgeStyle;rounded=0;orthogonalLoop=1;jettySize=auto;html=1;" edge="1" source="Pe1yKk_wz3yDoeoVBeo1-646" target="Pe1yKk_wz3yDoeoVBeo1-643" parent="1">
          <mxGeometry relative="1" as="geometry">
            <mxPoint x="140" y="1320" as="sourcePoint" />
            <mxPoint x="140" y="1360" as="targetPoint" />
          </mxGeometry>
        </mxCell>
        <mxCell id="Pe1yKk_wz3yDoeoVBeo1-641" style="edgeStyle=orthogonalEdgeStyle;rounded=0;orthogonalLoop=1;jettySize=auto;html=1;exitX=0.5;exitY=1;exitDx=0;exitDy=0;entryX=0.5;entryY=0;entryDx=0;entryDy=0;" edge="1" source="Pe1yKk_wz3yDoeoVBeo1-643" target="Pe1yKk_wz3yDoeoVBeo1-645" parent="1">
          <mxGeometry relative="1" as="geometry" />
        </mxCell>
        <mxCell id="Pe1yKk_wz3yDoeoVBeo1-643" value="DNS Lookup" style="shape=process;whiteSpace=wrap;html=1;backgroundOutline=1;strokeWidth=1;fillColor=none;" vertex="1" parent="1">
          <mxGeometry x="40" y="1360" width="200" height="40" as="geometry" />
        </mxCell>
        <mxCell id="Pe1yKk_wz3yDoeoVBeo1-644" style="edgeStyle=orthogonalEdgeStyle;rounded=0;orthogonalLoop=1;jettySize=auto;html=1;exitX=0.5;exitY=1;exitDx=0;exitDy=0;entryX=0.5;entryY=0;entryDx=0;entryDy=0;" edge="1" source="Pe1yKk_wz3yDoeoVBeo1-645" target="Pe1yKk_wz3yDoeoVBeo1-649" parent="1">
          <mxGeometry relative="1" as="geometry" />
        </mxCell>
        <mxCell id="Pe1yKk_wz3yDoeoVBeo1-645" value="根据DNS结果发送请求内容" style="rounded=1;whiteSpace=wrap;html=1;absoluteArcSize=1;arcSize=14;strokeWidth=1;fillColor=none;" vertex="1" parent="1">
          <mxGeometry x="40" y="1440" width="200" height="40" as="geometry" />
        </mxCell>
        <mxCell id="Pe1yKk_wz3yDoeoVBeo1-646" value="Start" style="strokeWidth=1;html=1;shape=mxgraph.flowchart.start_2;whiteSpace=wrap;fillColor=none;" vertex="1" parent="1">
          <mxGeometry x="120" y="1280" width="40" height="40" as="geometry" />
        </mxCell>
        <mxCell id="Pe1yKk_wz3yDoeoVBeo1-647" value="执行HTTP请求" style="text;html=1;strokeColor=none;fillColor=none;align=center;verticalAlign=middle;whiteSpace=wrap;rounded=0;fontStyle=1;fontColor=#FF0000;" vertex="1" parent="1">
          <mxGeometry x="80" y="1260" width="120" height="20" as="geometry" />
        </mxCell>
        <mxCell id="Pe1yKk_wz3yDoeoVBeo1-648" style="edgeStyle=orthogonalEdgeStyle;rounded=0;orthogonalLoop=1;jettySize=auto;html=1;exitX=0.5;exitY=1;exitDx=0;exitDy=0;entryX=0.5;entryY=0;entryDx=0;entryDy=0;entryPerimeter=0;" edge="1" source="Pe1yKk_wz3yDoeoVBeo1-649" target="Pe1yKk_wz3yDoeoVBeo1-650" parent="1">
          <mxGeometry relative="1" as="geometry" />
        </mxCell>
        <mxCell id="Pe1yKk_wz3yDoeoVBeo1-649" value="得到Server响应" style="rounded=1;whiteSpace=wrap;html=1;absoluteArcSize=1;arcSize=14;strokeWidth=1;fillColor=none;" vertex="1" parent="1">
          <mxGeometry x="40" y="1520" width="200" height="40" as="geometry" />
        </mxCell>
        <mxCell id="Pe1yKk_wz3yDoeoVBeo1-650" value="End" style="strokeWidth=1;html=1;shape=mxgraph.flowchart.terminator;whiteSpace=wrap;fillColor=none;" vertex="1" parent="1">
          <mxGeometry x="120" y="1600" width="40" height="40" as="geometry" />
        </mxCell>
        <mxCell id="Pe1yKk_wz3yDoeoVBeo1-684" style="edgeStyle=orthogonalEdgeStyle;rounded=0;orthogonalLoop=1;jettySize=auto;html=1;exitX=0.5;exitY=1;exitDx=0;exitDy=0;exitPerimeter=0;entryX=0.5;entryY=0;entryDx=0;entryDy=0;entryPerimeter=0;labelBackgroundColor=#ffffff;fontSize=12;" edge="1" source="Pe1yKk_wz3yDoeoVBeo1-685" target="Pe1yKk_wz3yDoeoVBeo1-694" parent="1">
          <mxGeometry relative="1" as="geometry" />
        </mxCell>
        <mxCell id="Pe1yKk_wz3yDoeoVBeo1-685" value="Start" style="strokeWidth=1;html=1;shape=mxgraph.flowchart.start_2;whiteSpace=wrap;fillColor=none;" vertex="1" parent="1">
          <mxGeometry x="-160.11" y="1280" width="40" height="40" as="geometry" />
        </mxCell>
        <mxCell id="Pe1yKk_wz3yDoeoVBeo1-686" value="拦截WebView资源加载" style="text;html=1;strokeColor=none;fillColor=none;align=center;verticalAlign=middle;whiteSpace=wrap;rounded=0;fontStyle=1" vertex="1" parent="1">
          <mxGeometry x="-240.11" y="1260" width="200" height="20" as="geometry" />
        </mxCell>
        <mxCell id="Pe1yKk_wz3yDoeoVBeo1-692" value="N" style="edgeStyle=orthogonalEdgeStyle;rounded=0;orthogonalLoop=1;jettySize=auto;html=1;exitX=0;exitY=0.5;exitDx=0;exitDy=0;exitPerimeter=0;labelBackgroundColor=#ffffff;fontSize=12;" edge="1" source="Pe1yKk_wz3yDoeoVBeo1-694" target="Pe1yKk_wz3yDoeoVBeo1-696" parent="1">
          <mxGeometry x="-0.8579" relative="1" as="geometry">
            <mxPoint as="offset" />
          </mxGeometry>
        </mxCell>
        <mxCell id="Pe1yKk_wz3yDoeoVBeo1-693" value="Y" style="edgeStyle=orthogonalEdgeStyle;rounded=0;orthogonalLoop=1;jettySize=auto;html=1;exitX=0.5;exitY=1;exitDx=0;exitDy=0;exitPerimeter=0;labelBackgroundColor=#ffffff;fontSize=12;" edge="1" source="Pe1yKk_wz3yDoeoVBeo1-694" target="Pe1yKk_wz3yDoeoVBeo1-742" parent="1">
          <mxGeometry relative="1" as="geometry" />
        </mxCell>
        <mxCell id="Pe1yKk_wz3yDoeoVBeo1-694" value="白名单域名?" style="strokeWidth=1;html=1;shape=mxgraph.flowchart.decision;whiteSpace=wrap;fillColor=none;fontStyle=0;" vertex="1" parent="1">
          <mxGeometry x="-240.11" y="1360" width="200" height="40" as="geometry" />
        </mxCell>
        <mxCell id="Pe1yKk_wz3yDoeoVBeo1-695" style="edgeStyle=orthogonalEdgeStyle;rounded=0;orthogonalLoop=1;jettySize=auto;html=1;exitX=0;exitY=0.5;exitDx=0;exitDy=0;labelBackgroundColor=#ffffff;fontSize=12;" edge="1" source="Pe1yKk_wz3yDoeoVBeo1-696" target="Pe1yKk_wz3yDoeoVBeo1-731" parent="1">
          <mxGeometry relative="1" as="geometry">
            <Array as="points">
              <mxPoint x="-520" y="1540" />
              <mxPoint x="-520" y="2420" />
            </Array>
          </mxGeometry>
        </mxCell>
        <mxCell id="Pe1yKk_wz3yDoeoVBeo1-696" value="交给WebView加载" style="rounded=1;whiteSpace=wrap;html=1;absoluteArcSize=1;arcSize=14;strokeWidth=1;fillColor=none;fontStyle=4" vertex="1" parent="1">
          <mxGeometry x="-480.11" y="1520" width="200" height="40" as="geometry" />
        </mxCell>
        <mxCell id="Pe1yKk_wz3yDoeoVBeo1-697" value="N" style="edgeStyle=orthogonalEdgeStyle;rounded=0;orthogonalLoop=1;jettySize=auto;html=1;labelBackgroundColor=#ffffff;fontSize=12;" edge="1" source="Pe1yKk_wz3yDoeoVBeo1-699" target="Pe1yKk_wz3yDoeoVBeo1-696" parent="1">
          <mxGeometry relative="1" as="geometry" />
        </mxCell>
        <mxCell id="Pe1yKk_wz3yDoeoVBeo1-698" value="Y" style="edgeStyle=orthogonalEdgeStyle;rounded=0;orthogonalLoop=1;jettySize=auto;html=1;exitX=0.5;exitY=1;exitDx=0;exitDy=0;exitPerimeter=0;labelBackgroundColor=#ffffff;fontSize=12;" edge="1" source="Pe1yKk_wz3yDoeoVBeo1-699" target="Pe1yKk_wz3yDoeoVBeo1-701" parent="1">
          <mxGeometry relative="1" as="geometry" />
        </mxCell>
        <mxCell id="Pe1yKk_wz3yDoeoVBeo1-699" value="是否http(s)的GET请求?" style="strokeWidth=1;html=1;shape=mxgraph.flowchart.decision;whiteSpace=wrap;fillColor=none;" vertex="1" parent="1">
          <mxGeometry x="-240.11" y="1520" width="200" height="40" as="geometry" />
        </mxCell>
        <mxCell id="Pe1yKk_wz3yDoeoVBeo1-700" style="edgeStyle=orthogonalEdgeStyle;rounded=0;orthogonalLoop=1;jettySize=auto;html=1;exitX=0.5;exitY=1;exitDx=0;exitDy=0;entryX=0.5;entryY=0;entryDx=0;entryDy=0;labelBackgroundColor=#ffffff;fontSize=12;" edge="1" source="Pe1yKk_wz3yDoeoVBeo1-701" target="Pe1yKk_wz3yDoeoVBeo1-704" parent="1">
          <mxGeometry relative="1" as="geometry" />
        </mxCell>
        <mxCell id="Pe1yKk_wz3yDoeoVBeo1-701" value="通过域名获取请求携带的Cookie" style="rounded=1;whiteSpace=wrap;html=1;absoluteArcSize=1;arcSize=14;strokeWidth=1;fillColor=none;" vertex="1" parent="1">
          <mxGeometry x="-240.11" y="1600" width="200" height="40" as="geometry" />
        </mxCell>
        <mxCell id="Pe1yKk_wz3yDoeoVBeo1-702" style="edgeStyle=orthogonalEdgeStyle;rounded=0;orthogonalLoop=1;jettySize=auto;html=1;exitX=0.5;exitY=1;exitDx=0;exitDy=0;entryX=0.5;entryY=0;entryDx=0;entryDy=0;labelBackgroundColor=#ffffff;fontSize=12;" edge="1" source="Pe1yKk_wz3yDoeoVBeo1-704" target="Pe1yKk_wz3yDoeoVBeo1-706" parent="1">
          <mxGeometry relative="1" as="geometry" />
        </mxCell>
        <mxCell id="Pe1yKk_wz3yDoeoVBeo1-703" style="edgeStyle=orthogonalEdgeStyle;rounded=0;orthogonalLoop=1;jettySize=auto;html=1;exitX=1;exitY=0.5;exitDx=0;exitDy=0;entryX=0;entryY=0.5;entryDx=0;entryDy=0;labelBackgroundColor=#ffffff;fontSize=16;fontColor=#007FFF;strokeColor=#007FFF;" edge="1" source="Pe1yKk_wz3yDoeoVBeo1-704" target="Pe1yKk_wz3yDoeoVBeo1-647" parent="1">
          <mxGeometry relative="1" as="geometry" />
        </mxCell>
        <mxCell id="Pe1yKk_wz3yDoeoVBeo1-704" value="执行HTTP请求" style="shape=process;whiteSpace=wrap;html=1;backgroundOutline=1;fontSize=12;strokeWidth=1;fillColor=none;" vertex="1" parent="1">
          <mxGeometry x="-240.11" y="1680" width="200" height="40" as="geometry" />
        </mxCell>
        <mxCell id="Pe1yKk_wz3yDoeoVBeo1-705" style="edgeStyle=orthogonalEdgeStyle;rounded=0;orthogonalLoop=1;jettySize=auto;html=1;exitX=0.5;exitY=1;exitDx=0;exitDy=0;entryX=0.5;entryY=0;entryDx=0;entryDy=0;entryPerimeter=0;labelBackgroundColor=#ffffff;fontSize=12;" edge="1" source="Pe1yKk_wz3yDoeoVBeo1-706" target="Pe1yKk_wz3yDoeoVBeo1-709" parent="1">
          <mxGeometry relative="1" as="geometry" />
        </mxCell>
        <mxCell id="Pe1yKk_wz3yDoeoVBeo1-706" value="解析Set-Cookie字段并设置Cookie" style="rounded=1;whiteSpace=wrap;html=1;absoluteArcSize=1;arcSize=14;strokeWidth=1;fillColor=none;" vertex="1" parent="1">
          <mxGeometry x="-240.11" y="1760" width="200" height="40" as="geometry" />
        </mxCell>
        <mxCell id="Pe1yKk_wz3yDoeoVBeo1-707" value="Y" style="edgeStyle=orthogonalEdgeStyle;rounded=0;orthogonalLoop=1;jettySize=auto;html=1;exitX=0;exitY=0.5;exitDx=0;exitDy=0;exitPerimeter=0;labelBackgroundColor=#ffffff;fontSize=12;" edge="1" source="Pe1yKk_wz3yDoeoVBeo1-709" target="Pe1yKk_wz3yDoeoVBeo1-696" parent="1">
          <mxGeometry x="-0.8182" relative="1" as="geometry">
            <mxPoint as="offset" />
          </mxGeometry>
        </mxCell>
        <mxCell id="Pe1yKk_wz3yDoeoVBeo1-708" value="N" style="edgeStyle=orthogonalEdgeStyle;rounded=0;orthogonalLoop=1;jettySize=auto;html=1;exitX=0.5;exitY=1;exitDx=0;exitDy=0;exitPerimeter=0;labelBackgroundColor=#ffffff;fontSize=12;" edge="1" source="Pe1yKk_wz3yDoeoVBeo1-709" target="Pe1yKk_wz3yDoeoVBeo1-719" parent="1">
          <mxGeometry relative="1" as="geometry" />
        </mxCell>
        <mxCell id="Pe1yKk_wz3yDoeoVBeo1-709" value="响应重定向?" style="strokeWidth=1;html=1;shape=mxgraph.flowchart.decision;whiteSpace=wrap;fillColor=none;" vertex="1" parent="1">
          <mxGeometry x="-240.11" y="1840" width="200" height="40" as="geometry" />
        </mxCell>
        <mxCell id="Pe1yKk_wz3yDoeoVBeo1-710" value="Y" style="edgeStyle=orthogonalEdgeStyle;rounded=0;orthogonalLoop=1;jettySize=auto;html=1;exitX=0;exitY=0.5;exitDx=0;exitDy=0;exitPerimeter=0;labelBackgroundColor=#ffffff;fontSize=12;" edge="1" source="Pe1yKk_wz3yDoeoVBeo1-712" target="Pe1yKk_wz3yDoeoVBeo1-714" parent="1">
          <mxGeometry relative="1" as="geometry" />
        </mxCell>
        <mxCell id="Pe1yKk_wz3yDoeoVBeo1-711" value="N" style="edgeStyle=orthogonalEdgeStyle;rounded=0;orthogonalLoop=1;jettySize=auto;html=1;exitX=0.5;exitY=1;exitDx=0;exitDy=0;exitPerimeter=0;entryX=0.5;entryY=0;entryDx=0;entryDy=0;entryPerimeter=0;labelBackgroundColor=#ffffff;fontSize=12;" edge="1" source="Pe1yKk_wz3yDoeoVBeo1-712" target="Pe1yKk_wz3yDoeoVBeo1-717" parent="1">
          <mxGeometry relative="1" as="geometry" />
        </mxCell>
        <mxCell id="Pe1yKk_wz3yDoeoVBeo1-712" value="字段值中有charset?" style="strokeWidth=1;html=1;shape=mxgraph.flowchart.decision;whiteSpace=wrap;fillColor=none;" vertex="1" parent="1">
          <mxGeometry x="-240.11" y="2000" width="200" height="40" as="geometry" />
        </mxCell>
        <mxCell id="Pe1yKk_wz3yDoeoVBeo1-713" style="edgeStyle=orthogonalEdgeStyle;rounded=0;orthogonalLoop=1;jettySize=auto;html=1;labelBackgroundColor=#ffffff;fontSize=12;" edge="1" source="Pe1yKk_wz3yDoeoVBeo1-714" target="Pe1yKk_wz3yDoeoVBeo1-730" parent="1">
          <mxGeometry relative="1" as="geometry">
            <Array as="points">
              <mxPoint x="-500" y="2020" />
              <mxPoint x="-500" y="2340" />
            </Array>
          </mxGeometry>
        </mxCell>
        <mxCell id="Pe1yKk_wz3yDoeoVBeo1-714" value="Web资源响应(mime, charset, body)" style="rounded=1;whiteSpace=wrap;html=1;absoluteArcSize=1;arcSize=14;strokeWidth=1;fillColor=none;" vertex="1" parent="1">
          <mxGeometry x="-480.11" y="2000" width="200" height="40" as="geometry" />
        </mxCell>
        <mxCell id="Pe1yKk_wz3yDoeoVBeo1-715" value="Y" style="edgeStyle=orthogonalEdgeStyle;rounded=0;orthogonalLoop=1;jettySize=auto;html=1;exitX=0;exitY=0.5;exitDx=0;exitDy=0;exitPerimeter=0;labelBackgroundColor=#ffffff;fontSize=12;" edge="1" source="Pe1yKk_wz3yDoeoVBeo1-717" target="Pe1yKk_wz3yDoeoVBeo1-721" parent="1">
          <mxGeometry relative="1" as="geometry" />
        </mxCell>
        <mxCell id="Pe1yKk_wz3yDoeoVBeo1-716" value="N" style="edgeStyle=orthogonalEdgeStyle;rounded=0;orthogonalLoop=1;jettySize=auto;html=1;exitX=0.5;exitY=1;exitDx=0;exitDy=0;exitPerimeter=0;labelBackgroundColor=#ffffff;fontSize=12;" edge="1" source="Pe1yKk_wz3yDoeoVBeo1-717" target="Pe1yKk_wz3yDoeoVBeo1-745" parent="1">
          <mxGeometry relative="1" as="geometry" />
        </mxCell>
        <mxCell id="Pe1yKk_wz3yDoeoVBeo1-717" value="&lt;font&gt;字段值是image?&lt;/font&gt;" style="strokeWidth=1;html=1;shape=mxgraph.flowchart.decision;whiteSpace=wrap;fillColor=none;" vertex="1" parent="1">
          <mxGeometry x="-240.11" y="2080" width="200" height="40" as="geometry" />
        </mxCell>
        <mxCell id="Pe1yKk_wz3yDoeoVBeo1-718" style="edgeStyle=orthogonalEdgeStyle;rounded=0;orthogonalLoop=1;jettySize=auto;html=1;exitX=0.5;exitY=1;exitDx=0;exitDy=0;labelBackgroundColor=#ffffff;fontSize=12;" edge="1" source="Pe1yKk_wz3yDoeoVBeo1-719" target="Pe1yKk_wz3yDoeoVBeo1-712" parent="1">
          <mxGeometry relative="1" as="geometry" />
        </mxCell>
        <mxCell id="Pe1yKk_wz3yDoeoVBeo1-719" value="解析Content-Type字段" style="rounded=1;whiteSpace=wrap;html=1;absoluteArcSize=1;arcSize=14;strokeWidth=1;fillColor=none;" vertex="1" parent="1">
          <mxGeometry x="-240.11" y="1920" width="200" height="40" as="geometry" />
        </mxCell>
        <mxCell id="Pe1yKk_wz3yDoeoVBeo1-720" style="edgeStyle=orthogonalEdgeStyle;rounded=0;orthogonalLoop=1;jettySize=auto;html=1;labelBackgroundColor=#ffffff;fontSize=12;" edge="1" source="Pe1yKk_wz3yDoeoVBeo1-721" target="Pe1yKk_wz3yDoeoVBeo1-730" parent="1">
          <mxGeometry relative="1" as="geometry">
            <Array as="points">
              <mxPoint x="-500" y="2100" />
              <mxPoint x="-500" y="2340" />
            </Array>
          </mxGeometry>
        </mxCell>
        <mxCell id="Pe1yKk_wz3yDoeoVBeo1-721" value="Web资源响应(mime, null, body)" style="rounded=1;whiteSpace=wrap;html=1;absoluteArcSize=1;arcSize=14;strokeWidth=1;fillColor=none;" vertex="1" parent="1">
          <mxGeometry x="-480.11" y="2080" width="200" height="40" as="geometry" />
        </mxCell>
        <mxCell id="Pe1yKk_wz3yDoeoVBeo1-722" value="Y" style="edgeStyle=orthogonalEdgeStyle;rounded=0;orthogonalLoop=1;jettySize=auto;html=1;exitX=0;exitY=0.5;exitDx=0;exitDy=0;exitPerimeter=0;labelBackgroundColor=#ffffff;fontSize=12;" edge="1" source="Pe1yKk_wz3yDoeoVBeo1-724" target="Pe1yKk_wz3yDoeoVBeo1-726" parent="1">
          <mxGeometry relative="1" as="geometry" />
        </mxCell>
        <mxCell id="Pe1yKk_wz3yDoeoVBeo1-723" value="N" style="edgeStyle=orthogonalEdgeStyle;rounded=0;orthogonalLoop=1;jettySize=auto;html=1;exitX=0.5;exitY=1;exitDx=0;exitDy=0;exitPerimeter=0;entryX=0.5;entryY=0;entryDx=0;entryDy=0;labelBackgroundColor=#ffffff;fontSize=12;" edge="1" source="Pe1yKk_wz3yDoeoVBeo1-724" target="Pe1yKk_wz3yDoeoVBeo1-728" parent="1">
          <mxGeometry relative="1" as="geometry" />
        </mxCell>
        <mxCell id="Pe1yKk_wz3yDoeoVBeo1-724" value="字段值是javascript/css?" style="strokeWidth=1;html=1;shape=mxgraph.flowchart.decision;whiteSpace=wrap;fillColor=none;" vertex="1" parent="1">
          <mxGeometry x="-240.11" y="2240" width="200" height="40" as="geometry" />
        </mxCell>
        <mxCell id="Pe1yKk_wz3yDoeoVBeo1-725" style="edgeStyle=orthogonalEdgeStyle;rounded=0;orthogonalLoop=1;jettySize=auto;html=1;labelBackgroundColor=#ffffff;fontSize=12;" edge="1" source="Pe1yKk_wz3yDoeoVBeo1-726" target="Pe1yKk_wz3yDoeoVBeo1-730" parent="1">
          <mxGeometry relative="1" as="geometry">
            <Array as="points">
              <mxPoint x="-500.11" y="2260" />
              <mxPoint x="-500.11" y="2340" />
            </Array>
          </mxGeometry>
        </mxCell>
        <mxCell id="Pe1yKk_wz3yDoeoVBeo1-726" value="Web资源响应(mime, &quot;UTF-8&quot;, body)" style="rounded=1;whiteSpace=wrap;html=1;absoluteArcSize=1;arcSize=14;strokeWidth=1;fillColor=none;" vertex="1" parent="1">
          <mxGeometry x="-480.11" y="2240" width="200" height="40" as="geometry" />
        </mxCell>
        <mxCell id="Pe1yKk_wz3yDoeoVBeo1-727" style="edgeStyle=orthogonalEdgeStyle;rounded=0;orthogonalLoop=1;jettySize=auto;html=1;exitX=0.5;exitY=1;exitDx=0;exitDy=0;labelBackgroundColor=#ffffff;fontSize=12;" edge="1" source="Pe1yKk_wz3yDoeoVBeo1-728" target="Pe1yKk_wz3yDoeoVBeo1-731" parent="1">
          <mxGeometry relative="1" as="geometry" />
        </mxCell>
        <mxCell id="Pe1yKk_wz3yDoeoVBeo1-728" value="交给WebView加载" style="rounded=1;whiteSpace=wrap;html=1;absoluteArcSize=1;arcSize=14;strokeWidth=1;fillColor=none;fontStyle=4" vertex="1" parent="1">
          <mxGeometry x="-240.11" y="2320" width="200" height="40" as="geometry" />
        </mxCell>
        <mxCell id="Pe1yKk_wz3yDoeoVBeo1-729" style="edgeStyle=orthogonalEdgeStyle;rounded=0;orthogonalLoop=1;jettySize=auto;html=1;exitX=0.5;exitY=1;exitDx=0;exitDy=0;entryX=0;entryY=0.5;entryDx=0;entryDy=0;entryPerimeter=0;labelBackgroundColor=#ffffff;fontSize=12;" edge="1" source="Pe1yKk_wz3yDoeoVBeo1-730" target="Pe1yKk_wz3yDoeoVBeo1-731" parent="1">
          <mxGeometry relative="1" as="geometry" />
        </mxCell>
        <mxCell id="Pe1yKk_wz3yDoeoVBeo1-730" value="设置响应码和响应码描述&lt;br&gt;并将其作为拦截响应" style="rounded=1;whiteSpace=wrap;html=1;absoluteArcSize=1;arcSize=14;strokeWidth=1;fillColor=none;" vertex="1" parent="1">
          <mxGeometry x="-480.11" y="2320" width="200" height="40" as="geometry" />
        </mxCell>
        <mxCell id="Pe1yKk_wz3yDoeoVBeo1-731" value="End" style="strokeWidth=1;html=1;shape=mxgraph.flowchart.terminator;whiteSpace=wrap;fillColor=none;" vertex="1" parent="1">
          <mxGeometry x="-160.11" y="2400" width="40" height="40" as="geometry" />
        </mxCell>
        <mxCell id="Pe1yKk_wz3yDoeoVBeo1-743" value="Y" style="edgeStyle=orthogonalEdgeStyle;rounded=0;orthogonalLoop=1;jettySize=auto;html=1;exitX=0.5;exitY=1;exitDx=0;exitDy=0;exitPerimeter=0;entryX=0.5;entryY=0;entryDx=0;entryDy=0;entryPerimeter=0;labelBackgroundColor=#ffffff;fontSize=12;fontColor=#000000;startArrow=none;startFill=0;strokeColor=#000000;strokeWidth=1;" edge="1" parent="1" source="Pe1yKk_wz3yDoeoVBeo1-742" target="Pe1yKk_wz3yDoeoVBeo1-699">
          <mxGeometry relative="1" as="geometry" />
        </mxCell>
        <mxCell id="Pe1yKk_wz3yDoeoVBeo1-744" value="N" style="edgeStyle=orthogonalEdgeStyle;rounded=0;orthogonalLoop=1;jettySize=auto;html=1;exitX=0;exitY=0.5;exitDx=0;exitDy=0;exitPerimeter=0;labelBackgroundColor=#ffffff;fontSize=12;fontColor=#000000;startArrow=none;startFill=0;strokeColor=#000000;strokeWidth=1;" edge="1" parent="1" source="Pe1yKk_wz3yDoeoVBeo1-742" target="Pe1yKk_wz3yDoeoVBeo1-696">
          <mxGeometry x="-0.8011" relative="1" as="geometry">
            <mxPoint as="offset" />
          </mxGeometry>
        </mxCell>
        <mxCell id="Pe1yKk_wz3yDoeoVBeo1-742" value="白名单尾号?" style="strokeWidth=1;html=1;shape=mxgraph.flowchart.decision;whiteSpace=wrap;fillColor=none;fontStyle=0;" vertex="1" parent="1">
          <mxGeometry x="-240.11" y="1440" width="200" height="40" as="geometry" />
        </mxCell>
        <mxCell id="Pe1yKk_wz3yDoeoVBeo1-746" value="N" style="edgeStyle=orthogonalEdgeStyle;rounded=0;orthogonalLoop=1;jettySize=auto;html=1;exitX=0.5;exitY=1;exitDx=0;exitDy=0;exitPerimeter=0;labelBackgroundColor=#ffffff;fontSize=12;fontColor=#000000;startArrow=none;startFill=0;strokeColor=#000000;strokeWidth=1;" edge="1" parent="1" source="Pe1yKk_wz3yDoeoVBeo1-745" target="Pe1yKk_wz3yDoeoVBeo1-724">
          <mxGeometry relative="1" as="geometry" />
        </mxCell>
        <mxCell id="Pe1yKk_wz3yDoeoVBeo1-748" value="Y" style="edgeStyle=orthogonalEdgeStyle;rounded=0;orthogonalLoop=1;jettySize=auto;html=1;exitX=1;exitY=0.5;exitDx=0;exitDy=0;exitPerimeter=0;entryX=1;entryY=0.5;entryDx=0;entryDy=0;labelBackgroundColor=#ffffff;fontSize=12;fontColor=#000000;startArrow=none;startFill=0;strokeColor=#000000;strokeWidth=1;" edge="1" parent="1" source="Pe1yKk_wz3yDoeoVBeo1-745" target="Pe1yKk_wz3yDoeoVBeo1-728">
          <mxGeometry relative="1" as="geometry" />
        </mxCell>
        <mxCell id="Pe1yKk_wz3yDoeoVBeo1-745" value="&lt;font&gt;字段值是audio/video?&lt;/font&gt;" style="strokeWidth=1;html=1;shape=mxgraph.flowchart.decision;whiteSpace=wrap;fillColor=none;" vertex="1" parent="1">
          <mxGeometry x="-240.11" y="2160" width="200" height="40" as="geometry" />
        </mxCell>
      </root>
    </mxGraphModel>
  </diagram>
</mxfile>
